<?xml version="1.0" standalone="no"?>
<!DOCTYPE svg PUBLIC "-//W3C//DTD SVG 1.1//EN" "http://www.w3.org/Graphics/SVG/1.1/DTD/svg11.dtd" >
<svg xmlns="http://www.w3.org/2000/svg" xmlns:xlink="http://www.w3.org/1999/xlink" version="1.1">
<metadata></metadata>
<defs>
<font id="hyperspacebold" horiz-adv-x="1250" >
<font-face units-per-em="2048" ascent="1638" descent="-410" />
<missing-glyph horiz-adv-x="500" />
<glyph horiz-adv-x="0" />
<glyph unicode="&#xd;" horiz-adv-x="508" />
<glyph unicode=" " />
<glyph unicode="!" d="M475 -20v140h100v-140h-100zM475 205v1315h100v-1315h-100z" />
<glyph unicode="&#x22;" d="M200 1280v50l75 100v90h100v-125l-86 -115h-89zM600 1280v50l75 100v90h100v-125l-86 -115h-89z" />
<glyph unicode="#" d="M0 455v90h263l12 12v386l-12 12h-263v90h263l12 12v463h100v-463l12 -12h276l12 12v463h100v-463l12 -12h263v-90h-263l-12 -12v-386l12 -12h263v-90h-263l-12 -12v-463h-100v463l-12 12h-276l-12 -12v-463h-100v463l-12 12h-263zM375 557l12 -12h276l12 12v386l-12 12 h-276l-12 -12v-386z" />
<glyph unicode="$" d="M0 180v90h463l12 12v411l-12 12h-463v615h463l12 12v188h100v-188l12 -12h463v-90h-463l-12 -12v-411l12 -12h463v-615h-463l-12 -12v-188h-100v188l-12 12h-463zM99 807l13 -12h351l12 12v411l-12 12h-352l-12 -12v-411zM575 282l12 -12h351l12 12v411l-12 12h-351 l-12 -12v-411z" />
<glyph unicode="%" d="M0 -20v50l960 1490h90v-50l-960 -1490h-90zM0 980v540h550v-540h-550zM100 1082l12 -12h326l12 12v336l-12 12h-326l-12 -12v-336zM500 -20v540h550v-540h-550zM600 82l12 -12h326l12 12v336l-12 12h-326l-12 -12v-336z" />
<glyph unicode="&#x26;" d="M0 180v1140h463l12 12v188h100v-188l12 -12h463v-90h-463l-12 -12v-411l12 -12h238v-90h-238l-12 -12v-411l12 -12h463v-90h-463l-12 -12v-188h-100v188l-12 12h-463zM100 282l12 -12h351l12 12v411l-12 12h-351l-12 -12v-411zM100 807l13 -12h350l12 12v411l-12 12h-351 l-12 -12v-411z" />
<glyph unicode="'" d="M400 1280v50l75 100v90h100v-125l-86 -115h-89z" />
<glyph unicode="(" d="M225 493v564l514 463h86v-52l-470 -423h-29l-1 -513l500 -500v-52h-87z" />
<glyph unicode=")" d="M225 -20v52l500 500l-1 513h-29l-470 423v52h86l514 -463v-564l-513 -513h-87z" />
<glyph unicode="*" d="M0 -20v50l436 675h-436v90h436l-436 675v50h90l385 -598v598h100v-598l385 598h90v-50l-436 -675h436v-90h-436l436 -675v-50h-90l-385 598v-598h-100v598l-385 -598h-90z" />
<glyph unicode="+" d="M0 705v90h463l12 12v713h100v-713l12 -12h463v-90h-463l-12 -12v-713h-100v713l-12 12h-463z" />
<glyph unicode="," d="M400 -70l75 100v90h100v-125l-86 -115h-89v50z" />
<glyph unicode="-" d="M0 705v90h1050v-90h-1050z" />
<glyph unicode="." d="M475 -20v140h100v-140h-100z" />
<glyph unicode="/" d="M0 -20v50l960 1490h90v-50l-960 -1490h-90z" />
<glyph unicode="0" d="M0 -20v1540h1050v-1540h-1050zM99 1418l1 -1337l13 -12h825l12 13l-1 1336l-11 12h-827z" />
<glyph unicode="1" d="M475 -20v1540h100v-1540h-100z" />
<glyph unicode="2" d="M0 -20v815h938l13 12v611l-12 12h-939v90h1050v-815h-938l-12 -12v-611l12 -12h938v-90h-1050z" />
<glyph unicode="3" d="M0 -20v90h938l12 12v611l-12 12h-938v90h937l13 12v611l-12 12h-938v90h1050v-1540h-1050z" />
<glyph unicode="4" d="M0 705v815h100v-713l12 -12h826l12 12v713h100v-1540h-100v713l-12 12h-938z" />
<glyph unicode="5" d="M0 -20v90h938l12 12v611l-12 12h-938v815h1050v-90h-939l-12 -12v-611l13 -12h938v-815h-1050z" />
<glyph unicode="6" d="M0 -20v1540h100v-713l12 -12h938v-815h-1050zM100 82l12 -12h827l11 12v611l-12 12h-825l-13 -12v-611z" />
<glyph unicode="7" d="M0 1430v90h1050v-1540h-99v1438l-13 12h-938z" />
<glyph unicode="8" d="M0 -20v1540h1050v-1540h-1050zM100 82l12 -12h826l12 12v611l-12 12h-826l-12 -12v-611zM100 807l12 -12h826l12 12v611l-12 12h-826l-12 -12v-611z" />
<glyph unicode="9" d="M0 705v815h1050v-1540h-100v713l-12 12h-938zM100 808l12 -13h826l12 12v611l-12 12h-826l-12 -12v-610z" />
<glyph unicode=":" d="M475 -20v140h100v-140h-100zM475 680v140h100v-140h-100z" />
<glyph unicode=";" d="M400 -70l75 100v90h100v-125l-86 -115h-89v50zM475 680v140h100v-140h-100z" />
<glyph unicode="&#x3c;" d="M0 775l975 745h85v-53l-914 -692l914 -742v-53h-85z" />
<glyph unicode="=" d="M0 455v90h1050v-90h-1050zM0 955v90h1050v-90h-1050z" />
<glyph unicode="&#x3e;" d="M0 -20v53l914 742l-914 692v53h85l975 -745l-975 -795h-85z" />
<glyph unicode="?" d="M0 1430v90h1050v-815h-463l-12 -12v-488h-100v590h463l13 12v611l-12 12h-939zM475 -20v140h100v-140h-100z" />
<glyph unicode="@" d="M0 -20v1540h1050v-1066h-825v591h713l12 12v361l-12 12h-827l-12 -12v-1336l13 -12h938v-90h-1050zM324 556l13 -12h601l12 13v386l-12 12h-602l-12 -12v-387z" />
<glyph unicode="A" d="M0 -20v1077l489 463h72l489 -463v-1077h-100v463l-12 12h-826l-12 -12v-463h-100zM100 557l12 -12h826l12 12v461l-425 401l-425 -401v-461z" />
<glyph unicode="B" d="M0 -20v1540h812l238 -238v-339l-193 -193l193 -193v-339l-238 -238h-812zM100 82l12 -12h651l187 187v261l-187 187h-651l-12 -12v-611zM100 807l13 -12h650l187 187v261l-187 187h-651l-12 -12v-611z" />
<glyph unicode="C" d="M0 -20v1540h1050v-90h-939l-12 -12v-1336l13 -12h938v-90h-1050z" />
<glyph unicode="D" d="M0 -20v1540h536l514 -463v-564l-513 -513h-537zM99 1418l1 -1337l13 -12h362v-12l475 475l-1 513h-30l-430 385h-378z" />
<glyph unicode="E" d="M0 -20v1540h1050v-90h-938l-12 -12v-611l13 -12h712v-90h-713l-12 -12v-611l12 -12h938v-90h-1050z" />
<glyph unicode="F" d="M0 -20v1540h1050v-90h-938l-12 -12v-611l13 -12h712v-90h-713l-12 -12v-713h-100z" />
<glyph unicode="G" d="M0 -20v1540h1050v-540h-100v438l-12 12h-827l-12 -12v-1336l13 -12h838v373l-12 12h-463v90h575v-565h-1050z" />
<glyph unicode="H" d="M0 -20v1540h100v-713l12 -12h826l12 12v713h100v-1540h-100v713l-12 12h-826l-12 -12v-713h-100z" />
<glyph unicode="I" d="M0 -20v90h463l12 12v1336l-12 12h-463v90h1050v-90h-463l-12 -12v-1336l12 -12h463v-90h-1050z" />
<glyph unicode="J" d="M0 493v52h87l488 -488v12h362l13 12l1 1337l-1 1v101h100v-1540h-537z" />
<glyph unicode="K" d="M0 -20v1540h100v-650l891 650h59v-79l-925 -675v-32l925 -675v-79h-60l-890 662v-662h-100z" />
<glyph unicode="L" d="M0 -20v1540h99v-1438l13 -12h938v-90h-1050z" />
<glyph unicode="M" d="M0 -20v1540h87l438 -438l438 438h87v-1540h-100v1388l-388 -388h-74l-388 388v-1388h-100z" />
<glyph unicode="N" d="M0 -20v1540h115l835 -1359v1359h100v-1540h-115l-835 1359v-1359h-100z" />
<glyph unicode="O" d="M0 -20v1540h1050v-1540h-1050zM99 1418l1 -1337l13 -12h825l12 13l-1 1336l-11 12h-827z" />
<glyph unicode="P" d="M0 -20v1540h1050v-815h-938l-12 -12v-713h-100zM100 807l13 -12h825l12 13v610l-11 12h-827l-12 -12v-611z" />
<glyph unicode="Q" d="M0 -20v1540h1050v-1027l-224 -224l224 -212v-77h-61l-232 220l-220 -220h-537zM99 1418l1 -1337l13 -12h362v-12l211 211l-211 200v77h61l219 -208l195 195l-1 886l-11 12h-827z" />
<glyph unicode="R" d="M0 -20v1540h1050v-815h-870l870 -646v-79h-60l-890 662v-662h-100zM100 807l13 -12h825l12 13v610l-11 12h-827l-12 -12v-611z" />
<glyph unicode="S" d="M0 -20v90h938l12 12v611l-12 12h-938v815h1050v-90h-939l-12 -12v-611l13 -12h938v-815h-1050z" />
<glyph unicode="T" d="M0 1430v90h1050v-90h-463l-12 -12v-1438h-100v1438l-12 12h-463z" />
<glyph unicode="U" d="M0 -20v1540h100v-101l-1 -1l1 -1337l13 -12h825l12 13v1438h100v-1540h-1050z" />
<glyph unicode="V" d="M0 1473v47h94l431 -1363l431 1363h94v-47l-481 -1493h-88z" />
<glyph unicode="W" d="M0 -20v1540h100v-1388l388 388h74l388 -388v1388h100v-1540h-87l-438 438l-438 -438h-87z" />
<glyph unicode="X" d="M0 -20v50l464 720l-464 720v50h90l435 -676l435 676h90v-50l-464 -720l464 -720v-50h-90l-435 676l-435 -676h-90z" />
<glyph unicode="Y" d="M0 1468v52h87l438 -438l438 438h87v-52l-475 -475v-1013h-100v1013z" />
<glyph unicode="Z" d="M0 -20v50l902 1400h-902v90h1050v-50l-902 -1400h902v-90h-1050z" />
<glyph unicode="[" d="M250 -20v1540h550v-90h-439l-12 -12v-1336l13 -12h438v-90h-550z" />
<glyph unicode="\" d="M0 1470v50h90l960 -1490v-50h-90z" />
<glyph unicode="]" d="M250 -20v90h438l13 12v1336l-12 12h-439v90h550v-1540h-550z" />
<glyph unicode="^" d="M0 1581v51l488 488h74l488 -488v-52h-87l-438 438l-438 -438z" />
<glyph unicode="_" d="M0 -205h1050v-90h-1050v90z" />
<glyph unicode="`" d="M225 2068v52h86l514 -488v-52h-86z" />
<glyph unicode="a" d="M0 -20v1077l489 463h72l489 -463v-1077h-100v463l-12 12h-826l-12 -12v-463h-100zM100 557l12 -12h826l12 12v461l-425 401l-425 -401v-461z" />
<glyph unicode="b" d="M0 -20v1540h812l238 -238v-339l-193 -193l193 -193v-339l-238 -238h-812zM100 82l12 -12h651l187 187v261l-187 187h-651l-12 -12v-611zM100 807l13 -12h650l187 187v261l-187 187h-651l-12 -12v-611z" />
<glyph unicode="c" d="M0 -20v1540h1050v-90h-939l-12 -12v-1336l13 -12h938v-90h-1050z" />
<glyph unicode="d" d="M0 -20v1540h536l514 -463v-564l-513 -513h-537zM99 1418l1 -1337l13 -12h362v-12l475 475l-1 513h-30l-430 385h-378z" />
<glyph unicode="e" d="M0 -20v1540h1050v-90h-938l-12 -12v-611l13 -12h712v-90h-713l-12 -12v-611l12 -12h938v-90h-1050z" />
<glyph unicode="f" d="M0 -20v1540h1050v-90h-938l-12 -12v-611l13 -12h712v-90h-713l-12 -12v-713h-100z" />
<glyph unicode="g" d="M0 -20v1540h1050v-540h-100v438l-12 12h-827l-12 -12v-1336l13 -12h838v373l-12 12h-463v90h575v-565h-1050z" />
<glyph unicode="h" d="M0 -20v1540h100v-713l12 -12h826l12 12v713h100v-1540h-100v713l-12 12h-826l-12 -12v-713h-100z" />
<glyph unicode="i" d="M0 -20v90h463l12 12v1336l-12 12h-463v90h1050v-90h-463l-12 -12v-1336l12 -12h463v-90h-1050z" />
<glyph unicode="j" d="M0 493v52h87l488 -488v12h362l13 12l1 1337l-1 1v101h100v-1540h-537z" />
<glyph unicode="k" d="M0 -20v1540h100v-650l891 650h59v-79l-925 -675v-32l925 -675v-79h-60l-890 662v-662h-100z" />
<glyph unicode="l" d="M0 -20v1540h99v-1438l13 -12h938v-90h-1050z" />
<glyph unicode="m" d="M0 -20v1540h87l438 -438l438 438h87v-1540h-100v1388l-388 -388h-74l-388 388v-1388h-100z" />
<glyph unicode="n" d="M0 -20v1540h115l835 -1359v1359h100v-1540h-115l-835 1359v-1359h-100z" />
<glyph unicode="o" d="M0 -20v1540h1050v-1540h-1050zM99 1418l1 -1337l13 -12h825l12 13l-1 1336l-11 12h-827z" />
<glyph unicode="p" d="M0 -20v1540h1050v-815h-938l-12 -12v-713h-100zM100 807l13 -12h825l12 13v610l-11 12h-827l-12 -12v-611z" />
<glyph unicode="q" d="M0 -20v1540h1050v-1027l-224 -224l224 -212v-77h-61l-232 220l-220 -220h-537zM99 1418l1 -1337l13 -12h362v-12l211 211l-211 200v77h61l219 -208l195 195l-1 886l-11 12h-827z" />
<glyph unicode="r" d="M0 -20v1540h1050v-815h-870l870 -646v-79h-60l-890 662v-662h-100zM100 807l13 -12h825l12 13v610l-11 12h-827l-12 -12v-611z" />
<glyph unicode="s" d="M0 -20v90h938l12 12v611l-12 12h-938v815h1050v-90h-939l-12 -12v-611l13 -12h938v-815h-1050z" />
<glyph unicode="t" d="M0 1430v90h1050v-90h-463l-12 -12v-1438h-100v1438l-12 12h-463z" />
<glyph unicode="u" d="M0 -20v1540h100v-101l-1 -1l1 -1337l13 -12h825l12 13v1438h100v-1540h-1050z" />
<glyph unicode="v" d="M0 1473v47h94l431 -1363l431 1363h94v-47l-481 -1493h-88z" />
<glyph unicode="w" d="M0 -20v1540h100v-1388l388 388h74l388 -388v1388h100v-1540h-87l-438 438l-438 -438h-87z" />
<glyph unicode="x" d="M0 -20v50l464 720l-464 720v50h90l435 -676l435 676h90v-50l-464 -720l464 -720v-50h-90l-435 676l-435 -676h-90z" />
<glyph unicode="y" d="M0 1468v52h87l438 -438l438 438h87v-52l-475 -475v-1013h-100v1013z" />
<glyph unicode="z" d="M0 -20v50l902 1400h-902v90h1050v-50l-902 -1400h902v-90h-1050z" />
<glyph unicode="{" d="M0 705v90h288l187 187v300l238 238h337v-90h-288l-187 -187v-300l-193 -193l193 -193v-300l187 -187h288v-90h-337l-238 238v300l-187 187h-288z" />
<glyph unicode="|" d="M475 -270v2040h100v-2040h-100z" />
<glyph unicode="}" d="M0 -20v90h288l187 187v300l193 193l-193 193v300l-187 187h-288v90h337l238 -238v-300l187 -187h288v-90h-288l-187 -187v-300l-238 -238h-337z" />
<glyph unicode="~" d="M0 1580v540h311l474 -450h153l12 12v438h100v-540h-311l-474 450h-153l-12 -12v-438h-100z" />
<glyph unicode="&#xa0;" />
<glyph unicode="&#xa1;" d="M475 -20v1315h100v-1315h-100zM475 1380v140h100v-140h-100z" />
<glyph unicode="&#xa2;" d="M0 180v1140h463l12 12v188h100v-188l12 -12h463v-90h-463l-12 -12v-936l12 -12h463v-90h-463l-12 -12v-188h-100v188l-12 12h-463zM99 282l13 -12h351l12 12v936l-12 12h-352l-12 -12v-936z" />
<glyph unicode="&#xa3;" d="M0 -20v90h463l12 12v611l-12 12h-238v90h238l12 12v713h575v-90h-463l-12 -12v-611l13 -12h237v-90h-238l-12 -12v-611l12 -12h463v-90h-1050z" />
<glyph unicode="&#xa4;" d="M0 -20v50l290 450h-40v540h40l-290 450v50h90l322 -500h226l322 500h90v-50l-290 -450h40v-540h-40l290 -450v-50h-90l-322 500h-226l-322 -500h-90zM350 582l12 -12h326l12 12v336l-12 12h-326l-12 -12v-336z" />
<glyph unicode="&#xa5;" d="M0 455v90h463l12 12v361l-12 12h-463v90h449l-449 448v52h87l438 -438l438 438h87v-52l-449 -448h449v-90h-463l-12 -12v-361l12 -12h463v-90h-463l-12 -12v-463h-100v463l-12 12h-463z" />
<glyph unicode="&#xa6;" horiz-adv-x="1014" d="M427 391h210v-829h-210v829zM427 769v829h210v-829h-210z" />
<glyph unicode="&#xa7;" d="M0 -20v90h938l12 12v611l-12 12h-138v-225h-550v225h-250v815h1050v-90h-939l-12 -12v-611l13 -12h138v225h550v-225h250v-815h-1050zM350 582l12 -12h326l12 12v336l-12 12h-326l-12 -12v-336z" />
<glyph unicode="&#xa8;" d="M250 1680v140h100v-140h-100zM700 1680v140h100v-140h-100z" />
<glyph unicode="&#xa9;" d="M0 218v1064l238 238h574l238 -238v-1064l-238 -238h-574zM100 257l187 -187h476l187 187v986l-187 187h-476l-187 -187v-986zM250 230v1040h550v-90h-438l-12 -12v-836l12 -12h438v-90h-550z" />
<glyph unicode="&#xaa;" horiz-adv-x="1650" d="M0 200v1100q0 200 200 200h1100q200 0 200 -200v-1100q0 -200 -200 -200h-1100q-200 0 -200 200zM25 200q1 -175 175 -175h1101q174 0 174 176v1099q0 175 -175 175h-1100q-174 0 -175 -175v-1100z" />
<glyph unicode="&#xab;" horiz-adv-x="1650" d="M0 200v1100q0 200 200 200h1100q200 0 200 -200v-1100q0 -200 -200 -200h-1100q-200 0 -200 200zM25 200q1 -175 175 -175h1101q174 0 174 176v1099q0 175 -175 175h-1100q-174 0 -175 -175v-1100z" />
<glyph unicode="&#xac;" horiz-adv-x="1014" d="M87 647v140h890v-518l-14 -14h-135v392h-741z" />
<glyph unicode="&#xad;" d="M0 705v90h1050v-90h-1050z" />
<glyph unicode="&#xae;" d="M0 218v1064l238 238h574l238 -238v-1064l-238 -238h-574zM100 257l187 -187h476l187 187v986l-187 187h-476l-187 -187v-986zM250 230v1040h550v-565h-382l382 -398v-77h-62l-388 400v-400h-100zM350 807l13 -12h325l12 13v360l-11 12h-327l-12 -12v-361z" />
<glyph unicode="&#xaf;" horiz-adv-x="1650" d="M0 200v1100q0 200 200 200h1100q200 0 200 -200v-1100q0 -200 -200 -200h-1100q-200 0 -200 200zM25 200q1 -175 175 -175h1101q174 0 174 176v1099q0 175 -175 175h-1100q-174 0 -175 -175v-1100z" />
<glyph unicode="&#xb0;" horiz-adv-x="1650" d="M0 200v1100q0 200 200 200h1100q200 0 200 -200v-1100q0 -200 -200 -200h-1100q-200 0 -200 200zM25 200q1 -175 175 -175h1101q174 0 174 176v1099q0 175 -175 175h-1100q-174 0 -175 -175v-1100z" />
<glyph unicode="&#xb1;" horiz-adv-x="1650" d="M0 200v1100q0 200 200 200h1100q200 0 200 -200v-1100q0 -200 -200 -200h-1100q-200 0 -200 200zM25 200q1 -175 175 -175h1101q174 0 174 176v1099q0 175 -175 175h-1100q-174 0 -175 -175v-1100z" />
<glyph unicode="&#xb2;" horiz-adv-x="1650" d="M0 200v1100q0 200 200 200h1100q200 0 200 -200v-1100q0 -200 -200 -200h-1100q-200 0 -200 200zM25 200q1 -175 175 -175h1101q174 0 174 176v1099q0 175 -175 175h-1100q-174 0 -175 -175v-1100z" />
<glyph unicode="&#xb3;" horiz-adv-x="1650" d="M0 200v1100q0 200 200 200h1100q200 0 200 -200v-1100q0 -200 -200 -200h-1100q-200 0 -200 200zM25 200q1 -175 175 -175h1101q174 0 174 176v1099q0 175 -175 175h-1100q-174 0 -175 -175v-1100z" />
<glyph unicode="&#xb4;" d="M225 1580v52l514 488h86v-52l-514 -488h-86z" />
<glyph unicode="&#xb5;" d="M0 -20v1540h100v-988l475 -475v12h362l13 12l1 1337l-1 1v101h100v-1540h-537l-413 413v-413h-100z" />
<glyph unicode="&#xb6;" horiz-adv-x="1650" d="M0 200v1100q0 200 200 200h1100q200 0 200 -200v-1100q0 -200 -200 -200h-1100q-200 0 -200 200zM25 200q1 -175 175 -175h1101q174 0 174 176v1099q0 175 -175 175h-1100q-174 0 -175 -175v-1100z" />
<glyph unicode="&#xb7;" d="M475 680v140h100v-140h-100z" />
<glyph unicode="&#xb8;" d="M0 -180h288l187 187v63h100v-102l-238 -238h-337v90z" />
<glyph unicode="&#xb9;" horiz-adv-x="1650" d="M0 200v1100q0 200 200 200h1100q200 0 200 -200v-1100q0 -200 -200 -200h-1100q-200 0 -200 200zM25 200q1 -175 175 -175h1101q174 0 174 176v1099q0 175 -175 175h-1100q-174 0 -175 -175v-1100z" />
<glyph unicode="&#xba;" horiz-adv-x="1650" d="M0 200v1100q0 200 200 200h1100q200 0 200 -200v-1100q0 -200 -200 -200h-1100q-200 0 -200 200zM25 200q1 -175 175 -175h1101q174 0 174 176v1099q0 175 -175 175h-1100q-174 0 -175 -175v-1100z" />
<glyph unicode="&#xbb;" horiz-adv-x="1650" d="M0 200v1100q0 200 200 200h1100q200 0 200 -200v-1100q0 -200 -200 -200h-1100q-200 0 -200 200zM25 200q1 -175 175 -175h1101q174 0 174 176v1099q0 175 -175 175h-1100q-174 0 -175 -175v-1100z" />
<glyph unicode="&#xbc;" horiz-adv-x="1650" d="M0 200v1100q0 200 200 200h1100q200 0 200 -200v-1100q0 -200 -200 -200h-1100q-200 0 -200 200zM25 200q1 -175 175 -175h1101q174 0 174 176v1099q0 175 -175 175h-1100q-174 0 -175 -175v-1100z" />
<glyph unicode="&#xbd;" horiz-adv-x="1650" d="M0 200v1100q0 200 200 200h1100q200 0 200 -200v-1100q0 -200 -200 -200h-1100q-200 0 -200 200zM25 200q1 -175 175 -175h1101q174 0 174 176v1099q0 175 -175 175h-1100q-174 0 -175 -175v-1100z" />
<glyph unicode="&#xbe;" horiz-adv-x="1650" d="M0 200v1100q0 200 200 200h1100q200 0 200 -200v-1100q0 -200 -200 -200h-1100q-200 0 -200 200zM25 200q1 -175 175 -175h1101q174 0 174 176v1099q0 175 -175 175h-1100q-174 0 -175 -175v-1100z" />
<glyph unicode="&#xbf;" d="M0 -20v815h463l12 12v488h100v-590h-463l-13 -12v-611l12 -12h939v-90h-1050zM475 1380v140h100v-140h-100z" />
<glyph unicode="&#xc0;" d="M0 -20v1077l489 463h72l489 -463v-1077h-100v463l-12 12h-826l-12 -12v-463h-100zM100 557l12 -12h826l12 12v461l-425 401l-425 -401v-461zM225 2068v52h86l514 -488v-52h-86z" />
<glyph unicode="&#xc1;" d="M0 -20v1077l489 463h72l489 -463v-1077h-100v463l-12 12h-826l-12 -12v-463h-100zM100 557l12 -12h826l12 12v461l-425 401l-425 -401v-461zM225 1580v52l514 488h86v-52l-514 -488h-86z" />
<glyph unicode="&#xc2;" d="M0 -20v1077l489 463h72l489 -463v-1077h-100v463l-12 12h-826l-12 -12v-463h-100zM0 1581v51l488 488h74l488 -488v-52h-87l-438 438l-438 -438zM100 557l12 -12h826l12 12v461l-425 401l-425 -401v-461z" />
<glyph unicode="&#xc3;" d="M0 -20v1077l489 463h72l489 -463v-1077h-100v463l-12 12h-826l-12 -12v-463h-100zM0 1580v540h311l474 -450h153l12 12v438h100v-540h-311l-474 450h-153l-12 -12v-438h-100zM100 557l12 -12h826l12 12v461l-425 401l-425 -401v-461z" />
<glyph unicode="&#xc4;" d="M0 -20v1077l489 463h72l489 -463v-1077h-100v463l-12 12h-826l-12 -12v-463h-100zM100 557l12 -12h826l12 12v461l-425 401l-425 -401v-461zM250 1680v140h100v-140h-100zM700 1680v140h100v-140h-100z" />
<glyph unicode="&#xc5;" d="M0 -20v1077l489 463h72l489 -463v-1077h-100v463l-12 12h-826l-12 -12v-463h-100zM100 557l12 -12h826l12 12v461l-425 401l-425 -401v-461zM250 1580v540h550v-540h-550zM350 1682l12 -12h326l12 12v336l-12 12h-326l-12 -12v-336z" />
<glyph unicode="&#xc6;" d="M0 -20v1077l489 463h561v-90h-463l-12 -12v-611l12 -12h488v-90h-488l-12 -12v-611l12 -12h463v-90h-575v463l-12 12h-351l-12 -12v-463h-100zM100 557l12 -12h351l12 12v815l-375 -354v-461z" />
<glyph unicode="&#xc7;" d="M0 -20v1540h1050v-90h-939l-12 -12v-1336l13 -12h938v-90h-475v-12l-238 -238h-337v90h288l160 160h-448z" />
<glyph unicode="&#xc8;" d="M0 -20v1540h1050v-90h-938l-12 -12v-611l13 -12h712v-90h-713l-12 -12v-611l12 -12h938v-90h-1050zM225 2068v52h86l514 -488v-52h-86z" />
<glyph unicode="&#xc9;" d="M0 -20v1540h1050v-90h-938l-12 -12v-611l13 -12h712v-90h-713l-12 -12v-611l12 -12h938v-90h-1050zM225 1580v52l514 488h86v-52l-514 -488h-86z" />
<glyph unicode="&#xca;" d="M0 -20v1540h1050v-90h-938l-12 -12v-611l13 -12h712v-90h-713l-12 -12v-611l12 -12h938v-90h-1050zM0 1581v51l488 488h74l488 -488v-52h-87l-438 438l-438 -438z" />
<glyph unicode="&#xcb;" d="M0 -20v1540h1050v-90h-938l-12 -12v-611l13 -12h712v-90h-713l-12 -12v-611l12 -12h938v-90h-1050zM250 1680v140h100v-140h-100zM700 1680v140h100v-140h-100z" />
<glyph unicode="&#xcc;" d="M0 -20v90h463l12 12v1336l-12 12h-463v90h1050v-90h-463l-12 -12v-1336l12 -12h463v-90h-1050zM225 2068v52h86l514 -488v-52h-86z" />
<glyph unicode="&#xcd;" d="M0 -20v90h463l12 12v1336l-12 12h-463v90h1050v-90h-463l-12 -12v-1336l12 -12h463v-90h-1050zM225 1580v52l514 488h86v-52l-514 -488h-86z" />
<glyph unicode="&#xce;" d="M0 -20v90h463l12 12v1336l-12 12h-463v90h1050v-90h-463l-12 -12v-1336l12 -12h463v-90h-1050zM0 1581v51l488 488h74l488 -488v-52h-87l-438 438l-438 -438z" />
<glyph unicode="&#xcf;" d="M0 -20v90h463l12 12v1336l-12 12h-463v90h1050v-90h-463l-12 -12v-1336l12 -12h463v-90h-1050zM250 1680v140h100v-140h-100zM700 1680v140h100v-140h-100z" />
<glyph unicode="&#xd0;" d="M0 -20v1540h536l514 -463v-564l-513 -513h-537zM87 820l25 -25h463v-90h-463l-12 -12v-612l13 -12h362v-12l475 475l-1 513h-30l-430 385h-378l-12 -12v-598h-12z" />
<glyph unicode="&#xd1;" d="M0 -20v1540h115l835 -1359v1359h100v-1540h-115l-835 1359v-1359h-100zM0 1580v540h311l474 -450h153l12 12v438h100v-540h-311l-474 450h-153l-12 -12v-438h-100z" />
<glyph unicode="&#xd2;" d="M0 -20v1540h1050v-1540h-1050zM99 1418l1 -1337l13 -12h825l12 13l-1 1336l-11 12h-827zM225 2068v52h86l514 -488v-52h-86z" />
<glyph unicode="&#xd3;" d="M0 -20v1540h1050v-1540h-1050zM99 1418l1 -1337l13 -12h825l12 13l-1 1336l-11 12h-827zM225 1580v52l514 488h86v-52l-514 -488h-86z" />
<glyph unicode="&#xd4;" d="M0 -20v1540h1050v-1540h-1050zM0 1581v51l488 488h74l488 -488v-52h-87l-438 438l-438 -438zM99 1418l1 -1337l13 -12h825l12 13l-1 1336l-11 12h-827z" />
<glyph unicode="&#xd5;" d="M0 -20v1540h1050v-1540h-1050zM0 1580v540h311l474 -450h153l12 12v438h100v-540h-311l-474 450h-153l-12 -12v-438h-100zM99 1418l1 -1337l13 -12h825l12 13l-1 1336l-11 12h-827z" />
<glyph unicode="&#xd6;" d="M0 -20v1540h1050v-1540h-1050zM99 1418l1 -1337l13 -12h825l12 13l-1 1336l-11 12h-827zM250 1680v140h100v-140h-100zM700 1680v140h100v-140h-100z" />
<glyph unicode="&#xd7;" d="M0 -20v50l464 720l-464 720v50h90l435 -676l435 676h90v-50l-464 -720l464 -720v-50h-90l-435 676l-435 -676h-90z" />
<glyph unicode="&#xd8;" d="M0 -20v1540h1050v-1540h-1050zM99 1418l1 -1233l802 1245h-791zM148 69h790l12 13l-1 1232z" />
<glyph unicode="&#xd9;" d="M0 -20v1540h100v-101l-1 -1l1 -1337l13 -12h825l12 13v1438h100v-1540h-1050zM225 2068v52h86l514 -488v-52h-86z" />
<glyph unicode="&#xda;" d="M0 -20v1540h100v-101l-1 -1l1 -1337l13 -12h825l12 13v1438h100v-1540h-1050zM225 1580v52l514 488h86v-52l-514 -488h-86z" />
<glyph unicode="&#xdb;" d="M0 -20v1540h100v-101l-1 -1l1 -1337l13 -12h825l12 13v1438h100v-1540h-1050zM0 1581v51l488 488h74l488 -488v-52h-87l-438 438l-438 -438z" />
<glyph unicode="&#xdc;" d="M0 -20v1540h100v-101l-1 -1l1 -1337l13 -12h825l12 13v1438h100v-1540h-1050zM250 1680v140h100v-140h-100zM700 1680v140h100v-140h-100z" />
<glyph unicode="&#xdd;" d="M0 1468v52h87l438 -438l438 438h87v-52l-475 -475v-1013h-100v1013zM225 1580v52l514 488h86v-52l-514 -488h-86z" />
<glyph unicode="&#xde;" d="M0 -20v1540h100v-413l12 -12h938v-640h-938l-12 -12v-463h-100zM100 557l13 -12h825l12 13v435l-11 12h-827l-12 -12v-436z" />
<glyph unicode="&#xdf;" d="M0 -20v1540h812l238 -238v-339l-193 -193l193 -193v-339l-238 -238h-337v90h288l187 187v261l-187 187h-288v90h288l187 187v261l-187 187h-651l-12 -12v-1438h-100z" />
<glyph unicode="&#xe0;" d="M0 -20v1077l489 463h72l489 -463v-1077h-100v463l-12 12h-826l-12 -12v-463h-100zM100 557l12 -12h826l12 12v461l-425 401l-425 -401v-461zM225 2068v52h86l514 -488v-52h-86z" />
<glyph unicode="&#xe1;" d="M0 -20v1077l489 463h72l489 -463v-1077h-100v463l-12 12h-826l-12 -12v-463h-100zM100 557l12 -12h826l12 12v461l-425 401l-425 -401v-461zM225 1580v52l514 488h86v-52l-514 -488h-86z" />
<glyph unicode="&#xe2;" d="M0 -20v1077l489 463h72l489 -463v-1077h-100v463l-12 12h-826l-12 -12v-463h-100zM0 1581v51l488 488h74l488 -488v-52h-87l-438 438l-438 -438zM100 557l12 -12h826l12 12v461l-425 401l-425 -401v-461z" />
<glyph unicode="&#xe3;" d="M0 -20v1077l489 463h72l489 -463v-1077h-100v463l-12 12h-826l-12 -12v-463h-100zM0 1580v540h311l474 -450h153l12 12v438h100v-540h-311l-474 450h-153l-12 -12v-438h-100zM100 557l12 -12h826l12 12v461l-425 401l-425 -401v-461z" />
<glyph unicode="&#xe4;" d="M0 -20v1077l489 463h72l489 -463v-1077h-100v463l-12 12h-826l-12 -12v-463h-100zM100 557l12 -12h826l12 12v461l-425 401l-425 -401v-461zM250 1680v140h100v-140h-100zM700 1680v140h100v-140h-100z" />
<glyph unicode="&#xe5;" d="M0 -20v1077l489 463h72l489 -463v-1077h-100v463l-12 12h-826l-12 -12v-463h-100zM100 557l12 -12h826l12 12v461l-425 401l-425 -401v-461zM250 1580v540h550v-540h-550zM350 1682l12 -12h326l12 12v336l-12 12h-326l-12 -12v-336z" />
<glyph unicode="&#xe6;" d="M0 -20v1077l489 463h561v-90h-463l-12 -12v-611l12 -12h488v-90h-488l-12 -12v-611l12 -12h463v-90h-575v463l-12 12h-351l-12 -12v-463h-100zM100 557l12 -12h351l12 12v815l-375 -354v-461z" />
<glyph unicode="&#xe7;" d="M0 -20v1540h1050v-90h-939l-12 -12v-1336l13 -12h938v-90h-475v-12l-238 -238h-337v90h288l160 160h-448z" />
<glyph unicode="&#xe8;" d="M0 -20v1540h1050v-90h-938l-12 -12v-611l13 -12h712v-90h-713l-12 -12v-611l12 -12h938v-90h-1050zM225 2068v52h86l514 -488v-52h-86z" />
<glyph unicode="&#xe9;" d="M0 -20v1540h1050v-90h-938l-12 -12v-611l13 -12h712v-90h-713l-12 -12v-611l12 -12h938v-90h-1050zM225 1580v52l514 488h86v-52l-514 -488h-86z" />
<glyph unicode="&#xea;" d="M0 -20v1540h1050v-90h-938l-12 -12v-611l13 -12h712v-90h-713l-12 -12v-611l12 -12h938v-90h-1050zM0 1581v51l488 488h74l488 -488v-52h-87l-438 438l-438 -438z" />
<glyph unicode="&#xeb;" d="M0 -20v1540h1050v-90h-938l-12 -12v-611l13 -12h712v-90h-713l-12 -12v-611l12 -12h938v-90h-1050zM250 1680v140h100v-140h-100zM700 1680v140h100v-140h-100z" />
<glyph unicode="&#xec;" d="M0 -20v90h463l12 12v1336l-12 12h-463v90h1050v-90h-463l-12 -12v-1336l12 -12h463v-90h-1050zM225 2068v52h86l514 -488v-52h-86z" />
<glyph unicode="&#xed;" d="M0 -20v90h463l12 12v1336l-12 12h-463v90h1050v-90h-463l-12 -12v-1336l12 -12h463v-90h-1050zM225 1580v52l514 488h86v-52l-514 -488h-86z" />
<glyph unicode="&#xee;" d="M0 -20v90h463l12 12v1336l-12 12h-463v90h1050v-90h-463l-12 -12v-1336l12 -12h463v-90h-1050zM0 1581v51l488 488h74l488 -488v-52h-87l-438 438l-438 -438z" />
<glyph unicode="&#xef;" d="M0 -20v90h463l12 12v1336l-12 12h-463v90h1050v-90h-463l-12 -12v-1336l12 -12h463v-90h-1050zM250 1680v140h100v-140h-100zM700 1680v140h100v-140h-100z" />
<glyph unicode="&#xf0;" d="M0 -20v1540h536l514 -463v-564l-513 -513h-537zM87 820l25 -25h463v-90h-463l-12 -12v-612l13 -12h362v-12l475 475l-1 513h-30l-430 385h-378l-12 -12v-598h-12z" />
<glyph unicode="&#xf1;" d="M0 -20v1540h115l835 -1359v1359h100v-1540h-115l-835 1359v-1359h-100zM0 1580v540h311l474 -450h153l12 12v438h100v-540h-311l-474 450h-153l-12 -12v-438h-100z" />
<glyph unicode="&#xf2;" d="M0 -20v1540h1050v-1540h-1050zM99 1418l1 -1337l13 -12h825l12 13l-1 1336l-11 12h-827zM225 2068v52h86l514 -488v-52h-86z" />
<glyph unicode="&#xf3;" d="M0 -20v1540h1050v-1540h-1050zM99 1418l1 -1337l13 -12h825l12 13l-1 1336l-11 12h-827zM225 1580v52l514 488h86v-52l-514 -488h-86z" />
<glyph unicode="&#xf4;" d="M0 -20v1540h1050v-1540h-1050zM0 1581v51l488 488h74l488 -488v-52h-87l-438 438l-438 -438zM99 1418l1 -1337l13 -12h825l12 13l-1 1336l-11 12h-827z" />
<glyph unicode="&#xf5;" d="M0 -20v1540h1050v-1540h-1050zM0 1580v540h311l474 -450h153l12 12v438h100v-540h-311l-474 450h-153l-12 -12v-438h-100zM99 1418l1 -1337l13 -12h825l12 13l-1 1336l-11 12h-827z" />
<glyph unicode="&#xf6;" d="M0 -20v1540h1050v-1540h-1050zM99 1418l1 -1337l13 -12h825l12 13l-1 1336l-11 12h-827zM250 1680v140h100v-140h-100zM700 1680v140h100v-140h-100z" />
<glyph unicode="&#xf7;" d="M0 705v90h1050v-90h-1050zM475 330v140h100v-140h-100zM475 1030v140h100v-140h-100z" />
<glyph unicode="&#xf8;" d="M0 -20v1540h1050v-1540h-1050zM99 1418l1 -1233l802 1245h-791zM148 69h790l12 13l-1 1232z" />
<glyph unicode="&#xf9;" d="M0 -20v1540h100v-101l-1 -1l1 -1337l13 -12h825l12 13v1438h100v-1540h-1050zM225 2068v52h86l514 -488v-52h-86z" />
<glyph unicode="&#xfa;" d="M0 -20v1540h100v-101l-1 -1l1 -1337l13 -12h825l12 13v1438h100v-1540h-1050zM225 1580v52l514 488h86v-52l-514 -488h-86z" />
<glyph unicode="&#xfb;" d="M0 -20v1540h100v-101l-1 -1l1 -1337l13 -12h825l12 13v1438h100v-1540h-1050zM0 1581v51l488 488h74l488 -488v-52h-87l-438 438l-438 -438z" />
<glyph unicode="&#xfc;" d="M0 -20v1540h100v-101l-1 -1l1 -1337l13 -12h825l12 13v1438h100v-1540h-1050zM250 1680v140h100v-140h-100zM700 1680v140h100v-140h-100z" />
<glyph unicode="&#xfd;" d="M0 1468v52h87l438 -438l438 438h87v-52l-475 -475v-1013h-100v1013zM225 1580v52l514 488h86v-52l-514 -488h-86z" />
<glyph unicode="&#xfe;" d="M0 -20v1540h100v-413l12 -12h938v-640h-938l-12 -12v-463h-100zM100 557l13 -12h825l12 13v435l-11 12h-827l-12 -12v-436z" />
<glyph unicode="&#xff;" d="M0 1468v52h87l438 -438l438 438h87v-52l-475 -475v-1013h-100v1013zM250 1680v140h100v-140h-100zM700 1680v140h100v-140h-100z" />
<glyph unicode="&#x2c6;" d="M0 1581v51l488 488h74l488 -488v-52h-87l-438 438l-438 -438z" />
<glyph unicode="&#x2dc;" d="M0 1580v540h311l474 -450h153l12 12v438h100v-540h-311l-474 450h-153l-12 -12v-438h-100z" />
<glyph unicode="&#x2000;" horiz-adv-x="1060" />
<glyph unicode="&#x2001;" horiz-adv-x="2120" />
<glyph unicode="&#x2002;" horiz-adv-x="1060" />
<glyph unicode="&#x2003;" horiz-adv-x="2120" />
<glyph unicode="&#x2004;" horiz-adv-x="706" />
<glyph unicode="&#x2005;" horiz-adv-x="530" />
<glyph unicode="&#x2006;" horiz-adv-x="353" />
<glyph unicode="&#x2007;" horiz-adv-x="353" />
<glyph unicode="&#x2008;" horiz-adv-x="265" />
<glyph unicode="&#x2009;" horiz-adv-x="424" />
<glyph unicode="&#x200a;" horiz-adv-x="117" />
<glyph unicode="&#x2010;" d="M0 705v90h1050v-90h-1050z" />
<glyph unicode="&#x2011;" d="M0 705v90h1050v-90h-1050z" />
<glyph unicode="&#x2012;" d="M0 705v90h1050v-90h-1050z" />
<glyph unicode="&#x2013;" d="M0 705v90h1050v-90h-1050z" />
<glyph unicode="&#x2014;" d="M0 705v90h1050v-90h-1050z" />
<glyph unicode="&#x2018;" d="M400 1395v125h100v-90l75 -100v-50h-89z" />
<glyph unicode="&#x2019;" d="M400 1280v50l75 100v90h100v-125l-86 -115h-89z" />
<glyph unicode="&#x201a;" d="M400 -70l75 100v90h100v-125l-86 -115h-89v50z" />
<glyph unicode="&#x201c;" d="M200 1395v125h100v-90l75 -100v-50h-89zM600 1395v125h100v-90l75 -100v-50h-89z" />
<glyph unicode="&#x201d;" d="M200 1280v50l75 100v90h100v-125l-86 -115h-89zM600 1280v50l75 100v90h100v-125l-86 -115h-89z" />
<glyph unicode="&#x201e;" d="M200 -70l75 100v90h100v-125l-86 -115h-89v50zM600 -70l75 100v90h100v-125l-86 -115h-89v50z" />
<glyph unicode="&#x2022;" horiz-adv-x="1024" d="M216 718q0 130 93.5 222.5t228.5 92.5q134 0 227 -93t93 -222t-94 -223t-228 -94q-135 0 -227.5 93.5t-92.5 223.5z" />
<glyph unicode="&#x2026;" d="M0 -20v140h100v-140h-100zM475 -20v140h100v-140h-100zM950 -20v140h100v-140h-100z" />
<glyph unicode="&#x202f;" horiz-adv-x="424" />
<glyph unicode="&#x2039;" d="M0 775l975 745h85v-53l-914 -692l914 -742v-53h-85z" />
<glyph unicode="&#x203a;" d="M0 -20v53l914 742l-914 692v53h85l975 -745l-975 -795h-85z" />
<glyph unicode="&#x205f;" horiz-adv-x="530" />
<glyph unicode="&#x20ac;" d="M0 493v564l514 463h536v-90h-489l-402 -360h891v-90h-949l-1 -410h950v-90h-898l423 -423v12h362l1 1h112v-90h-537z" />
<glyph unicode="&#x2122;" horiz-adv-x="1375" d="M0 1455v65h550v-65h-237v-725h-75v725h-238zM625 730v790h62l213 -213l213 213h62v-790h-75v676l-175 -176h-49l-176 176v-676h-75z" />
<glyph unicode="&#x25fc;" horiz-adv-x="1520" d="M0 0v1520h1520v-1520h-1520z" />
</font>
</defs>
</svg>
