<?xml version="1.0" encoding="UTF-8" standalone="no"?>
<svg
   xmlns:dc="http://purl.org/dc/elements/1.1/"
   xmlns:cc="http://creativecommons.org/ns#"
   xmlns:rdf="http://www.w3.org/1999/02/22-rdf-syntax-ns#"
   xmlns:svg="http://www.w3.org/2000/svg"
   xmlns="http://www.w3.org/2000/svg"
   viewBox="0 0 750 750"
   height="750"
   width="750"
   xml:space="preserve"
   version="1.1"
   id="svg2"><metadata
     id="metadata8"><rdf:RDF><cc:Work
         rdf:about=""><dc:format>image/svg+xml</dc:format><dc:type
           rdf:resource="http://purl.org/dc/dcmitype/StillImage" /></cc:Work></rdf:RDF></metadata><defs
     id="defs6"><clipPath
       id="clipPath16"
       clipPathUnits="userSpaceOnUse"><path
         id="path18"
         d="M 0,600 600,600 600,0 0,0 0,600 Z" /></clipPath></defs><g
     transform="matrix(1.25,0,0,-1.25,0,750)"
     id="g10"><g
       id="g12"><g
         clip-path="url(#clipPath16)"
         id="g14"><g
           transform="translate(418.6694,307.1215)"
           id="g20"><path
             id="path22"
             style="fill:#3276bc;fill-opacity:1;fill-rule:nonzero;stroke:none"
             d="m 0,0 c 0,70.5 -49.5,118.75 -114.75,120 -67,-0.75 -113.5,-48 -121,-114.25 24,39.25 71.25,65.5 113,65.5 34.5,0 52.25,-18.5 52.25,-54.5 l -91,0 c 1.75,15.25 8.5,31 18,40.5 -36.75,-14.75 -62.75,-48.5 -62.75,-93 0,-54.75 43.75,-100 105.5,-100 31.5,0 57.25,7 79.25,18.5 l 0,54.25 c -20,-12.5 -43.75,-19.5 -70.5,-19.5 -39.5,0 -68.5,19 -68.5,54 L 0,-28.5 0,0 Z" /></g></g></g></g></svg>