<svg version="1.1" xmlns="http://www.w3.org/2000/svg" xmlns:xlink="http://www.w3.org/1999/xlink" viewBox="0 0 432.079 224">
<path fill="#DBDBDB" d="M142.784,172.811l-70.636,50.715L1.513,172.811V54.549c0,0,26.118-9.867,70.731-9.867
		c44.613,0,70.54,9.867,70.54,9.867V172.811z"/>
<path fill="#C6C6C6" d="M72.244,44.682c-0.033,0-0.064,0.001-0.097,0.001v178.84h0.001l70.636-50.715V54.549
		C142.784,54.549,116.857,44.682,72.244,44.682z"/>
<polygon fill="#3B3B63" points="104.936,142 72,142 72,224 72.075,224 110.977,195.66 "/>
<polygon fill="#53537A" points="33.386,195.747 72,223.523 72,86.458 38.583,140.376 "/>
<g fill="#1E1E1E">
	<path d="M166.739,135.044c3.676,2.231,11.291,4.856,17.199,4.856c6.039,0,8.533-2.1,8.533-5.383
		c0-3.281-1.97-4.856-9.453-7.352c-13.26-4.463-18.38-11.684-18.248-19.299c0-11.947,10.24-21.006,26.126-21.006
		c7.483,0,14.179,1.707,18.117,3.677l-3.545,13.784c-2.888-1.575-8.402-3.676-13.916-3.676c-4.857,0-7.614,1.97-7.614,5.252
		c0,3.02,2.494,4.595,10.371,7.352c12.21,4.201,17.33,10.372,17.461,19.825c0,11.946-9.452,20.741-27.832,20.741
		c-8.402,0-15.886-1.838-20.744-4.463L166.739,135.044z"/>
	<path d="M223.852,108.787c0-8.008-0.264-14.835-0.525-20.48h17.33l0.92,8.796h0.394
		c2.626-4.069,9.19-10.24,19.823-10.24c13.129,0,22.977,8.665,22.977,27.571v38.072h-19.956v-35.579
		c0-8.271-2.888-13.916-10.108-13.916c-5.515,0-8.797,3.808-10.108,7.483c-0.524,1.182-0.788,3.15-0.788,4.988v37.022h-19.955
		v-43.718H223.852z"/>
	<path d="M313.262,88.306l9.583,31.508c1.051,3.808,2.362,8.535,3.151,11.949h0.394
		c0.919-3.414,1.97-8.271,2.889-11.949l7.878-31.508h21.399l-14.968,42.275c-9.189,25.469-15.36,35.709-22.582,42.144
		c-6.957,6.039-14.309,8.139-19.299,8.797l-4.201-16.938c2.494-0.394,5.646-1.574,8.666-3.412c3.02-1.576,6.302-4.728,8.271-8.01
		c0.657-0.918,1.052-1.97,1.052-2.888c0-0.657-0.132-1.707-0.92-3.282l-23.5-58.685H313.262z"/>
	<path d="M405.821,114.301l22.977-25.995h-24.025l-12.998,19.299c-1.574,2.495-3.15,5.12-4.595,7.747h-0.263
		l0.006-72.961l-19.961,31.644v13.158v32.492v32.821h19.955v-20.086l5.119-6.303l15.492,26.389h24.551L405.821,114.301z"/>
</g>
<path fill="none" d="M142.784,172.811l-70.636,50.715L1.513,172.811v-37.705c0,0,26.118-9.867,70.731-9.867
	c44.613,0,70.54,9.867,70.54,9.867V172.811z"/>
<path fill="#BC9375" d="M88.619,179.962c0,9.16-8.545,13.703-16.384,13.703c-7.84,0-16.556-4.543-16.556-13.703"/>
<path fill="#083251" d="M83.815,174.771c0,10.742-5.778,13.625-11.666,13.625c-5.89,0-11.668-2.883-11.668-13.625"/>
<path fill="#FFFFFF" d="M72.149,184.698c-6.295,0-9.354-4.621-9.354-14.125h3c0,11.125,4.292,11.125,6.354,11.125
	s6.353,0,6.353-11.125h3C81.502,180.077,78.442,184.698,72.149,184.698z"/>
	<path fill="#C49A7E" d="M122.104,61.07c0-11.592-19.562-48.059-19.562-48.059L95.923,59.26l-5.938,9.765L72.184,69.75l-0.07,0.144
		V69.75l-17.801-0.725l-5.938-9.765l-6.619-46.249c0,0-19.562,36.467-19.562,48.059l8.263,22.27c0,0-4.171,37.407-2.268,42.305
		c1.902,4.897,15.084,21.28,15.084,21.28S43.237,160.7,46.845,170.6c2.578,7.073,8.251,9.936,13.684,9.936
		c8.325,0,11.583-7.645,11.583-7.645s3.331,7.645,11.656,7.645c5.433,0,11.104-2.861,13.684-9.936
		c3.608-9.898,3.571-23.675,3.571-23.675s13.182-16.383,15.085-21.28S113.84,83.34,113.84,83.34L122.104,61.07z"/>
	<path fill="#D8B7A0" d="M72.148,69.822l-0.035,0.071V69.75l-17.801-0.725l-5.938-9.765l-6.619-46.249
		c0,0-19.562,36.467-19.562,48.059l8.263,22.27c0,0-4.171,37.407-2.268,42.305c1.902,4.897,15.084,21.28,15.084,21.28
		S43.236,160.7,46.844,170.6c2.578,7.073,8.251,9.936,13.684,9.936c8.325,0,11.583-7.645,11.583-7.645s0.013,0.028,0.036,0.077
		L72.148,69.822L72.148,69.822z"/>
<path fill="#3B3B63" d="M114.019,85.532c-1.516-3.178,0.642-10.696,0.642-10.696c-12.357-12.679-15.445-39.117-15.445-39.117
	c-2.305,8.331-7.318,32.894-7.318,32.894s-9.221-3.438-19.711-3.454v-0.001c-0.014,0-0.024,0.001-0.037,0.001
	c-0.013,0-0.025-0.001-0.038-0.001v0.001c-0.576,0.001-1.146,0.016-1.712,0.036v103.651l0.782,1.146v-0.566h0.487v0.566l0.001-0.566
	h0.958l0.002,0.566v-0.566h0.487v0.566l8.538-12.488l1.858-35.06l10.632,12.144l13.694,4.006c0,0,5.125-3.657,5.125-3.646
	c2.174-3.051,2.898-5.648,3.425-6.996C118.292,123.05,114.019,85.532,114.019,85.532z"/>
<path fill="#53537A" d="M72.243,65.158c-0.013,0-0.024-0.001-0.036-0.001v0.001c-10.492,0.017-19.712,3.454-19.712,3.454
	s-5.014-24.562-7.319-32.894c0,0-3.088,26.438-15.445,39.117c0,0,2.158,7.519,0.643,10.696c0,0-4.273,37.518-2.37,42.417
	c0.526,1.348,1.251,3.944,3.425,6.995c0-0.012,5.125,3.646,5.125,3.646l13.695-4.006l10.631-12.143l1.858,35.059l8.538,12.488
	v-0.566h0.486v0.566l0.004-0.566h0.478L72.243,65.158L72.243,65.158z"/>
<path fill="#333152" d="M97,109L97,109H85l0,0h-4v0.167c0,5.587,4.832,10.115,10.498,10.115c5.67,0,10.502-4.528,10.502-10.115
	V109H97z"/>
<path fill="#FFFFFF" d="M85,109v0.167c0,3.325,2.676,6.021,6,6.021c3.326,0,6-2.694,6-6.021V109H85z"/>
<path fill="#333152" d="M92.854,109h-2.815c-0.026,0-0.049,0.012-0.074,0.015c0.35,0.077,0.54,0.866,0.466,1.393
	c-0.113,0.804-0.797,1.364-1.583,1.374c0.229,1.055,1.088,1.901,2.224,2.061c1.455,0.203,2.802-0.79,3.006-2.246
	C94.227,110.526,93.713,109,92.854,109z"/>
<path fill="#333152" d="M58.378,109L58.378,109h-12l0,0h-4v0.167c0,5.587,4.832,10.115,10.498,10.115
	c5.67,0,10.502-4.528,10.502-10.115V109H58.378z"/>
<path fill="#FFFFFF" d="M46.378,109v0.167c0,3.325,2.676,6.021,6,6.021c3.326,0,6-2.694,6-6.021V109H46.378z"/>
<path fill="#333152" d="M54.231,109h-2.815c-0.026,0-0.049,0.012-0.074,0.015c0.35,0.077,0.54,0.866,0.466,1.393
	c-0.113,0.804-0.797,1.364-1.583,1.374c0.229,1.055,1.088,1.901,2.224,2.061c1.455,0.203,2.802-0.79,3.006-2.246
	C55.604,110.526,55.091,109,54.231,109z"/>
<path fill="#C49A7E" d="M95.794,104.226c0.67-0.733,6.374-7.206-1.253-7.206c-6.894,0-11.853,5.563-13.168,7.206H95.794z"/>
<path fill="#D8B7A0" d="M62.892,104.226c-1.314-1.643-6.274-7.206-13.167-7.206c-7.626,0-1.924,6.473-1.254,7.206H62.892z"/>
<rect x="38.697" y="106.194" fill="#53537A" width="29.178" height="2.746"/>
<path fill="#333152" d="M126,61.07c0-12.243-17.935-46.126-19.986-49.949l-5.733-10.735l-8.214,57.497l-3.792,6.247
	c-3.661-1.23-9.891-2.946-16.165-2.946c-6.264,0-12.453,1.71-16.098,2.94l-3.794-6.241l-2.884-20.155
	c0.004-0.033,0.01-0.078,0.012-0.097l-0.026-0.003L43.99,0.386l-5.855,10.735C36.083,14.944,18,48.827,18,61.07v0.718l8.28,22.054
	c-1.325,12.025-3.853,38.145-1.868,43.251c1.238,3.189,5.999,9.781,10.027,15.066l-5.402,50.224l7.467,5.268l3.927-36.445
	c0.567,3.576,1.402,7.357,2.644,10.764c1.714,4.704,4.742,8.262,8.615,10.374c0.232,11.255,10.691,17.324,20.545,17.324
	c9.773,0,20.146-6.071,20.373-17.33c3.866-2.112,6.888-5.668,8.601-10.367c1.293-3.546,2.143-7.499,2.708-11.202l3.97,36.912
	l7.467-5.457l-5.411-50.216c3.996-5.259,8.666-11.753,9.893-14.912c1.985-5.106-0.643-31.226-1.968-43.251L126,61.788V61.07z
	 M26.219,60.418c0.453-6.35,7.061-21.564,13.36-34.385l1.678,11.722c-0.639,4.384-3.567,21.573-11.421,32.411L26.219,60.418z
	 M72.235,191.665c-4.389,0-10.633-1.958-12.189-7.147c0.16,0.004,0.316,0.018,0.477,0.018c0.85,0,1.645-0.077,2.415-0.188
	c2.228,3.1,5.695,4.051,9.211,4.051c3.519,0,6.998-0.941,9.228-4.047c0.763,0.107,1.55,0.184,2.39,0.184
	c0.166,0,0.326-0.014,0.491-0.018C82.723,189.707,76.563,191.665,72.235,191.665z M70.052,181.471
	c0.778,0.23,1.524,0.228,2.097,0.228c0.568,0,1.307,0.004,2.078-0.222c0.853,0.619,1.82,1.183,2.886,1.66
	c-1.34,1.002-2.989,1.562-4.963,1.562c-1.98,0-3.638-0.554-4.98-1.56C68.236,182.659,69.201,182.093,70.052,181.471z
	 M112.38,124.195c-1.157,2.979-9.16,13.617-14.473,20.222l-0.888,1.104l0.004,1.414c0,0.131-0.003,13.17-3.329,22.293
	c-2.404,6.594-7.742,7.307-9.926,7.307c-5.521,0-7.905-5.061-7.989-5.242l-0.432-0.982c4.756-1.873,8.679-7.123,8.679-10.379
	c0-1.924-2.442-6.93-5.508-6.93h-12.74c-3.165,0-5.508,5.504-5.508,6.93c0,3.536,3.68,8.854,8.534,10.512l-0.357,0.82
	c-0.096,0.213-2.421,5.26-7.918,5.26c-2.184,0-7.522-0.707-9.926-7.301c-3.314-9.092-3.33-22.16-3.33-22.291l0.003-1.412
	l-0.887-1.102c-5.312-6.602-13.314-17.24-14.444-20.145c-0.902-3.139,0.589-23.46,2.487-40.488l0.105-0.944l-1.496-4.032
	c5.143-5.396,8.754-12.82,11.243-19.888l0.246,1.72l8.17,13.431l3.192-1.372c0.081-0.035,8.272-3.517,16.221-3.517
	c7.903,0,16.224,3.487,16.303,3.521l3.188,1.358l8.163-13.425l0.32-2.241c2.466,7.137,6.072,14.697,11.242,20.211l-1.569,4.23
	l0.105,0.944C111.764,100.81,113.255,121.132,112.38,124.195z M114.548,69.935c-8.485-11.929-11.148-31.32-11.376-33.093
	l1.547-10.81c6.299,12.821,12.907,28.036,13.36,34.386L114.548,69.935z"/>
</svg>